<svg xmlns="http://www.w3.org/2000/svg" viewBox="0 0 760 360" role="img" aria-labelledby="title desc">
  <title id="title">Connected EV charging coordination</title>
  <desc id="desc">Electric vehicles, charging stations, roadside units, and assignment decisions in a connected transportation system.</desc>
  <rect width="760" height="360" fill="#f7f9fb"/>
  <path d="M40 260 C180 190 280 300 410 225 C520 160 610 205 720 135" fill="none" stroke="#c7d7df" stroke-width="34" stroke-linecap="round"/>
  <path d="M40 260 C180 190 280 300 410 225 C520 160 610 205 720 135" fill="none" stroke="#ffffff" stroke-width="4" stroke-dasharray="16 14"/>
  <g fill="#e8f2f5" stroke="#9cb6c2">
    <rect x="74" y="64" width="92" height="56" rx="4"/>
    <rect x="206" y="86" width="118" height="72" rx="4"/>
    <rect x="494" y="54" width="112" height="76" rx="4"/>
    <rect x="586" y="234" width="98" height="62" rx="4"/>
  </g>
  <g fill="#2f6f8f">
    <rect x="89" y="40" width="10" height="24"/>
    <rect x="104" y="34" width="10" height="30"/>
    <rect x="119" y="48" width="10" height="16"/>
    <rect x="224" y="58" width="10" height="28"/>
    <rect x="242" y="48" width="10" height="38"/>
    <rect x="260" y="68" width="10" height="18"/>
    <rect x="520" y="28" width="10" height="26"/>
    <rect x="538" y="18" width="10" height="36"/>
    <rect x="556" y="36" width="10" height="18"/>
  </g>
  <g>
    <circle cx="384" cy="166" r="34" fill="#ffffff" stroke="#2f6f8f" stroke-width="4"/>
    <path d="M384 132 L384 104" stroke="#2f6f8f" stroke-width="5" stroke-linecap="round"/>
    <path d="M354 156 C332 142 314 136 294 130" stroke="#2f6f8f" stroke-width="4" fill="none" stroke-dasharray="5 7"/>
    <path d="M414 158 C450 134 485 122 528 112" stroke="#2f6f8f" stroke-width="4" fill="none" stroke-dasharray="5 7"/>
    <text x="384" y="171" text-anchor="middle" font-family="Arial, sans-serif" font-size="18" font-weight="700" fill="#102133">RSU</text>
  </g>
  <g fill="#f05a28" stroke="#9e3518" stroke-width="2">
    <rect x="124" y="226" width="70" height="28" rx="8"/>
    <circle cx="141" cy="257" r="8"/>
    <circle cx="178" cy="257" r="8"/>
    <rect x="286" y="270" width="72" height="28" rx="8"/>
    <circle cx="304" cy="301" r="8"/>
    <circle cx="342" cy="301" r="8"/>
    <rect x="565" y="152" width="72" height="28" rx="8"/>
    <circle cx="583" cy="183" r="8"/>
    <circle cx="621" cy="183" r="8"/>
  </g>
  <g>
    <rect x="84" y="154" width="62" height="78" rx="8" fill="#ffffff" stroke="#2f8f73" stroke-width="4"/>
    <rect x="100" y="172" width="30" height="30" rx="4" fill="#e7f4ee" stroke="#2f8f73"/>
    <path d="M114 178 v18 M105 187 h18" stroke="#2f8f73" stroke-width="4"/>
    <text x="115" y="221" text-anchor="middle" font-family="Arial, sans-serif" font-size="15" fill="#102133">CP</text>
    <rect x="632" y="102" width="62" height="78" rx="8" fill="#ffffff" stroke="#2f8f73" stroke-width="4"/>
    <rect x="648" y="120" width="30" height="30" rx="4" fill="#e7f4ee" stroke="#2f8f73"/>
    <path d="M662 126 v18 M653 135 h18" stroke="#2f8f73" stroke-width="4"/>
    <text x="663" y="169" text-anchor="middle" font-family="Arial, sans-serif" font-size="15" fill="#102133">CP</text>
  </g>
  <g font-family="Arial, sans-serif" fill="#102133">
    <text x="40" y="326" font-size="24" font-weight="700">EV charging coordination</text>
    <text x="40" y="350" font-size="16">Fair assignment, routing, waiting-time commitments, and infrastructure-aware charging access.</text>
  </g>
</svg>
